<svg xmlns="http://www.w3.org/2000/svg" viewBox="0 0 32.41 36.92">
  <defs>
    <style>
      .cls-1 {
        fill: #da332e;
      }

      .cls-2 {
        fill: none;
        stroke: #da332e;
        stroke-linecap: round;
        stroke-linejoin: round;
        stroke-width: 1.47px;
      }
    </style>
  </defs>
  <title>Ресурс 5</title>
  <g id="Слой_2" data-name="Слой 2">
    <g id="Layer_1" data-name="Layer 1">
      <g>
        <path class="cls-1" d="M11.3,16.52v5.37H5.92V16.52H11.3M13,14.78H5a.8.8,0,0,0-.8.81v8H13V14.78Z"/>
        <path class="cls-1" d="M18.83,16.52v5.37H13.46V16.52h5.37m1.74-1.74H11.73v8.85h8.84V14.78Z"/>
        <path class="cls-1" d="M26.37,16.52v5.37H21V16.52h5.37m.93-1.74h-8v8.85H28.1v-8a.8.8,0,0,0-.8-.8Z"/>
        <path class="cls-1" d="M11.29,24.16v5.38H5.92V24.16h5.37M13,22.43H4.19v8a.79.79,0,0,0,.79.8h8V22.43Z"/>
        <path class="cls-1" d="M18.83,24.16v5.38H13.45V24.16h5.38m1.73-1.73H11.72v8.84h8.84V22.43Z"/>
        <path class="cls-1" d="M26.37,24.16v5.38H21V24.16h5.38m1.73-1.73H19.26v8.84h8a.79.79,0,0,0,.79-.79v-8Z"/>
        <path class="cls-1" d="M7.91,1.54A1.41,1.41,0,0,1,9.32,3V7.52a1.41,1.41,0,0,1-1.41,1.4H7.78a1.4,1.4,0,0,1-1.4-1.4V3a1.41,1.41,0,0,1,1.4-1.41h.13m0-1.5H7.78A2.92,2.92,0,0,0,4.88,3V7.52a2.92,2.92,0,0,0,2.9,2.9h.13a2.92,2.92,0,0,0,2.91-2.9V3A2.92,2.92,0,0,0,7.91,0Z"/>
        <path class="cls-1" d="M24.5,1.5a1.4,1.4,0,0,1,1.4,1.4V7.47a1.4,1.4,0,0,1-1.4,1.41h-.13A1.41,1.41,0,0,1,23,7.47V2.9a1.4,1.4,0,0,1,1.4-1.4h.13m0-1.5h-.13a2.92,2.92,0,0,0-2.9,2.9V7.47a2.92,2.92,0,0,0,2.9,2.91h.13a2.91,2.91,0,0,0,2.9-2.91V2.9A2.91,2.91,0,0,0,24.5,0Z"/>
        <polyline class="cls-2" points="26.72 5.24 31.67 5.24 31.67 36.18 0.74 36.18 0.74 5.24 5.45 5.24"/>
        <line class="cls-2" x1="10.45" y1="5.24" x2="21.95" y2="5.24"/>
      </g>
    </g>
  </g>
</svg>
