<svg xmlns="http://www.w3.org/2000/svg" viewBox="0 0 36.79 32.92">
  <defs>
    <style>
      .cls-1, .cls-2 {
        fill: none;
        stroke: #da332e;
        stroke-miterlimit: 10;
      }

      .cls-1 {
        stroke-width: 1.5px;
      }

      .cls-2 {
        stroke-width: 1.5px;
      }

      .cls-3 {
        fill: #da332e;
      }
    </style>
  </defs>
  <title>Ресурс 6</title>
  <g id="Слой_2" data-name="Слой 2">
    <g id="Layer_1" data-name="Layer 1">
      <g>
        <g>
          <path class="cls-1" d="M36,16.39a3.08,3.08,0,0,1-3.11,3.05H20.56"/>
          <path class="cls-2" d="M16,19.44H3.87A3.09,3.09,0,0,1,.75,16.39"/>
        </g>
        <path class="cls-3" d="M20.34,18.38v3.88H16.46V18.38h3.88m.43-1.5H16A1.06,1.06,0,0,0,15,17.94V22.7A1.05,1.05,0,0,0,16,23.76h4.75a1.06,1.06,0,0,0,1.07-1.06V17.94a1.07,1.07,0,0,0-1.07-1.06Z"/>
        <rect class="cls-2" x="0.75" y="8.21" width="35.29" height="23.96" rx="2.82"/>
        <path class="cls-2" d="M12.32.75H24.47a1.61,1.61,0,0,1,1.61,1.61V7.74a0,0,0,0,1,0,0H10.71a0,0,0,0,1,0,0V2.36A1.61,1.61,0,0,1,12.32.75Z"/>
      </g>
    </g>
  </g>
</svg>
